<mxfile host="65bd71144e" pages="1">
    <diagram id="xk0LYboaFIT9QmwzVqD-" name="Page-1">
        <mxGraphModel dx="971" dy="812" grid="0" gridSize="10" guides="1" tooltips="1" connect="1" arrows="1" fold="1" page="0" pageScale="1" pageWidth="827" pageHeight="1169" background="#282A36" math="0" shadow="0">
            <root>
                <mxCell id="0"/>
                <mxCell id="1" parent="0"/>
                <mxCell id="18" style="edgeStyle=orthogonalEdgeStyle;rounded=0;orthogonalLoop=1;jettySize=auto;html=1;exitX=0;exitY=0.5;exitDx=0;exitDy=0;entryX=1;entryY=0.5;entryDx=0;entryDy=0;fontSize=13;fontColor=#F8F8F2;strokeWidth=2;strokeColor=#BD93F9;" parent="1" source="20" target="22" edge="1">
                    <mxGeometry relative="1" as="geometry"/>
                </mxCell>
                <mxCell id="19" style="edgeStyle=orthogonalEdgeStyle;rounded=0;orthogonalLoop=1;jettySize=auto;html=1;exitX=1;exitY=0.5;exitDx=0;exitDy=0;entryX=0;entryY=0.5;entryDx=0;entryDy=0;strokeColor=#BD93F9;strokeWidth=2;fontSize=13;fontColor=#F8F8F2;" parent="1" source="20" target="23" edge="1">
                    <mxGeometry relative="1" as="geometry"/>
                </mxCell>
                <mxCell id="20" value="FacebookAuthentication" style="rounded=1;whiteSpace=wrap;html=1;strokeColor=#BD93F9;fillColor=#2E303D;strokeWidth=3;fontColor=#F8F8F2;" parent="1" vertex="1">
                    <mxGeometry x="-58.5" y="471.5" width="154" height="60" as="geometry"/>
                </mxCell>
                <mxCell id="22" value="AccessToken" style="rounded=1;whiteSpace=wrap;html=1;strokeColor=#FF79C6;fillColor=#2E303D;strokeWidth=3;fontColor=#F8F8F2;" parent="1" vertex="1">
                    <mxGeometry x="-204" y="471.5" width="104" height="60" as="geometry"/>
                </mxCell>
                <mxCell id="23" value="AuthenticationError" style="rounded=1;whiteSpace=wrap;html=1;strokeColor=#FF79C6;fillColor=#2E303D;strokeWidth=3;fontColor=#F8F8F2;" parent="1" vertex="1">
                    <mxGeometry x="137" y="471.5" width="122" height="60" as="geometry"/>
                </mxCell>
                <mxCell id="42" value="UserAccount" style="rounded=1;whiteSpace=wrap;html=1;strokeColor=#FF79C6;fillColor=#2E303D;strokeWidth=3;fontColor=#F8F8F2;" parent="1" vertex="1">
                    <mxGeometry x="-349.5" y="471.5" width="104" height="60" as="geometry"/>
                </mxCell>
                <mxCell id="69" value="" style="rounded=0;whiteSpace=wrap;html=1;strokeColor=none;strokeWidth=3;fillColor=#FF79C6;fontSize=13;fontColor=#F8F8F2;align=right;" parent="1" vertex="1">
                    <mxGeometry x="-148" y="-17" width="20" height="20" as="geometry"/>
                </mxCell>
                <mxCell id="70" value="Model" style="text;html=1;resizable=0;points=[];autosize=1;align=left;verticalAlign=middle;spacingTop=-4;fontSize=13;fontColor=#F8F8F2;" parent="1" vertex="1">
                    <mxGeometry x="-126" y="-15" width="45" height="16" as="geometry"/>
                </mxCell>
                <mxCell id="71" value="" style="rounded=0;whiteSpace=wrap;html=1;strokeColor=none;strokeWidth=3;fillColor=#BD93F9;fontSize=13;fontColor=#F8F8F2;align=right;" parent="1" vertex="1">
                    <mxGeometry x="-74" y="-17" width="20" height="20" as="geometry"/>
                </mxCell>
                <mxCell id="72" value="Abstraction" style="text;html=1;resizable=0;points=[];autosize=1;align=left;verticalAlign=middle;spacingTop=-4;fontSize=13;fontColor=#F8F8F2;" parent="1" vertex="1">
                    <mxGeometry x="-52" y="-15" width="75" height="16" as="geometry"/>
                </mxCell>
                <mxCell id="73" value="" style="rounded=0;whiteSpace=wrap;html=1;strokeColor=none;strokeWidth=3;fillColor=#8BE9FD;fontSize=13;fontColor=#F8F8F2;align=right;" parent="1" vertex="1">
                    <mxGeometry x="29" y="-15" width="20" height="20" as="geometry"/>
                </mxCell>
                <mxCell id="74" value="Implementation" style="text;html=1;resizable=0;points=[];autosize=1;align=left;verticalAlign=middle;spacingTop=-4;fontSize=13;fontColor=#F8F8F2;" parent="1" vertex="1">
                    <mxGeometry x="51" y="-13" width="99" height="16" as="geometry"/>
                </mxCell>
                <mxCell id="75" value="" style="rounded=0;whiteSpace=wrap;html=1;strokeColor=none;strokeWidth=3;fillColor=#50FA7B;fontSize=13;fontColor=#F8F8F2;align=right;" parent="1" vertex="1">
                    <mxGeometry x="-223" y="-17" width="20" height="20" as="geometry"/>
                </mxCell>
                <mxCell id="76" value="Layer" style="text;html=1;resizable=0;points=[];autosize=1;align=left;verticalAlign=middle;spacingTop=-4;fontSize=13;fontColor=#F8F8F2;" parent="1" vertex="1">
                    <mxGeometry x="-201" y="-15" width="43" height="16" as="geometry"/>
                </mxCell>
                <mxCell id="77" value="" style="rounded=0;whiteSpace=wrap;html=1;strokeColor=#50FA7B;strokeWidth=3;fillColor=#2E303D;fontColor=#F8F8F2;" parent="1" vertex="1">
                    <mxGeometry x="-395" y="374" width="814" height="376" as="geometry"/>
                </mxCell>
                <mxCell id="160" style="edgeStyle=orthogonalEdgeStyle;rounded=0;orthogonalLoop=1;jettySize=auto;html=1;exitX=0;exitY=0.75;exitDx=0;exitDy=0;entryX=0.5;entryY=1;entryDx=0;entryDy=0;strokeColor=#8BE9FD;strokeWidth=3;" parent="1" source="80" target="155" edge="1">
                    <mxGeometry relative="1" as="geometry"/>
                </mxCell>
                <mxCell id="161" style="edgeStyle=orthogonalEdgeStyle;rounded=0;orthogonalLoop=1;jettySize=auto;html=1;exitX=0;exitY=0.25;exitDx=0;exitDy=0;entryX=0.5;entryY=1;entryDx=0;entryDy=0;strokeColor=#8BE9FD;strokeWidth=3;" parent="1" source="80" target="156" edge="1">
                    <mxGeometry relative="1" as="geometry"/>
                </mxCell>
                <mxCell id="162" style="edgeStyle=orthogonalEdgeStyle;rounded=0;orthogonalLoop=1;jettySize=auto;html=1;exitX=1;exitY=0.75;exitDx=0;exitDy=0;entryX=0.5;entryY=1;entryDx=0;entryDy=0;strokeColor=#8BE9FD;strokeWidth=3;" parent="1" source="80" target="159" edge="1">
                    <mxGeometry relative="1" as="geometry"/>
                </mxCell>
                <mxCell id="163" style="edgeStyle=orthogonalEdgeStyle;rounded=0;orthogonalLoop=1;jettySize=auto;html=1;exitX=1;exitY=0.25;exitDx=0;exitDy=0;entryX=0.5;entryY=1;entryDx=0;entryDy=0;strokeColor=#8BE9FD;strokeWidth=3;" parent="1" source="80" target="158" edge="1">
                    <mxGeometry relative="1" as="geometry"/>
                </mxCell>
                <mxCell id="164" style="edgeStyle=orthogonalEdgeStyle;rounded=0;orthogonalLoop=1;jettySize=auto;html=1;exitX=0.5;exitY=0;exitDx=0;exitDy=0;entryX=0.5;entryY=1;entryDx=0;entryDy=0;strokeColor=#8BE9FD;strokeWidth=3;" parent="1" source="80" target="157" edge="1">
                    <mxGeometry relative="1" as="geometry"/>
                </mxCell>
                <mxCell id="80" value="ChangeProfilePictureUseCase" style="rounded=1;whiteSpace=wrap;html=1;strokeColor=#8BE9FD;fillColor=#2E303D;strokeWidth=3;fontColor=#F8F8F2;" parent="1" vertex="1">
                    <mxGeometry x="-76.5" y="524.5" width="190" height="60" as="geometry"/>
                </mxCell>
                <mxCell id="113" value="" style="rounded=0;whiteSpace=wrap;html=1;strokeColor=none;strokeWidth=3;fillColor=#FF5555;fontSize=13;fontColor=#F8F8F2;align=right;" parent="1" vertex="1">
                    <mxGeometry x="159" y="-17" width="20" height="20" as="geometry"/>
                </mxCell>
                <mxCell id="114" value="External Lib" style="text;html=1;resizable=0;points=[];autosize=1;align=left;verticalAlign=middle;spacingTop=-4;fontSize=13;fontColor=#F8F8F2;" parent="1" vertex="1">
                    <mxGeometry x="181" y="-15" width="79" height="16" as="geometry"/>
                </mxCell>
                <mxCell id="126" value="ChangeProfilePicture" style="rounded=1;whiteSpace=wrap;html=1;strokeColor=#BD93F9;fillColor=#2E303D;strokeWidth=3;fontColor=#F8F8F2;" parent="1" vertex="1">
                    <mxGeometry x="-58.5" y="644.5" width="154" height="60" as="geometry"/>
                </mxCell>
                <mxCell id="128" value="UserProfile" style="rounded=1;whiteSpace=wrap;html=1;strokeColor=#FF79C6;fillColor=#2E303D;strokeWidth=3;fontColor=#F8F8F2;" parent="1" vertex="1">
                    <mxGeometry x="-229" y="644.5" width="104" height="60" as="geometry"/>
                </mxCell>
                <mxCell id="130" style="edgeStyle=orthogonalEdgeStyle;rounded=0;orthogonalLoop=1;jettySize=auto;html=1;exitX=0.5;exitY=1;exitDx=0;exitDy=0;entryX=0.5;entryY=0;entryDx=0;entryDy=0;strokeWidth=3;strokeColor=#8BE9FD;dashed=1;dashPattern=1 1;" parent="1" source="80" target="126" edge="1">
                    <mxGeometry relative="1" as="geometry"/>
                </mxCell>
                <mxCell id="139" style="edgeStyle=orthogonalEdgeStyle;rounded=0;orthogonalLoop=1;jettySize=auto;html=1;exitX=0.25;exitY=1;exitDx=0;exitDy=0;entryX=0.5;entryY=0;entryDx=0;entryDy=0;strokeColor=#8BE9FD;strokeWidth=3;" parent="1" source="80" target="128" edge="1">
                    <mxGeometry relative="1" as="geometry"/>
                </mxCell>
                <mxCell id="143" value="Domain" style="text;html=1;resizable=0;points=[];autosize=1;align=right;verticalAlign=bottom;spacingTop=-4;fontColor=#F8F8F2;fontSize=13;" parent="1" vertex="1">
                    <mxGeometry x="366" y="352" width="54" height="16" as="geometry"/>
                </mxCell>
                <mxCell id="153" style="edgeStyle=orthogonalEdgeStyle;rounded=0;orthogonalLoop=1;jettySize=auto;html=1;exitX=0;exitY=0.5;exitDx=0;exitDy=0;entryX=1;entryY=0.5;entryDx=0;entryDy=0;fontSize=13;fontColor=#F8F8F2;strokeWidth=2;strokeColor=#BD93F9;" parent="1" edge="1">
                    <mxGeometry relative="1" as="geometry">
                        <mxPoint x="-102" y="213" as="targetPoint"/>
                    </mxGeometry>
                </mxCell>
                <mxCell id="154" style="edgeStyle=orthogonalEdgeStyle;rounded=0;orthogonalLoop=1;jettySize=auto;html=1;exitX=1;exitY=0.5;exitDx=0;exitDy=0;entryX=0;entryY=0.5;entryDx=0;entryDy=0;strokeColor=#BD93F9;strokeWidth=2;fontSize=13;fontColor=#F8F8F2;" parent="1" edge="1">
                    <mxGeometry relative="1" as="geometry">
                        <mxPoint x="94" y="213" as="sourcePoint"/>
                    </mxGeometry>
                </mxCell>
                <mxCell id="155" value="UploadFile" style="rounded=1;whiteSpace=wrap;html=1;strokeColor=#BD93F9;fillColor=#2E303D;strokeWidth=3;fontColor=#F8F8F2;" parent="1" vertex="1">
                    <mxGeometry x="-349.5" y="419" width="106" height="60" as="geometry"/>
                </mxCell>
                <mxCell id="156" value="DeleteFile" style="rounded=1;whiteSpace=wrap;html=1;strokeColor=#BD93F9;fillColor=#2E303D;strokeWidth=3;fontColor=#F8F8F2;" parent="1" vertex="1">
                    <mxGeometry x="-206" y="419" width="106" height="60" as="geometry"/>
                </mxCell>
                <mxCell id="157" value="UUIDGenerator" style="rounded=1;whiteSpace=wrap;html=1;strokeColor=#BD93F9;fillColor=#2E303D;strokeWidth=3;fontColor=#F8F8F2;" parent="1" vertex="1">
                    <mxGeometry x="-43" y="419" width="123" height="60" as="geometry"/>
                </mxCell>
                <mxCell id="158" value="SaveUserPicture" style="rounded=1;whiteSpace=wrap;html=1;strokeColor=#BD93F9;fillColor=#2E303D;strokeWidth=3;fontColor=#F8F8F2;" parent="1" vertex="1">
                    <mxGeometry x="137" y="419" width="106" height="60" as="geometry"/>
                </mxCell>
                <mxCell id="159" value="LoadUserProfile" style="rounded=1;whiteSpace=wrap;html=1;strokeColor=#BD93F9;fillColor=#2E303D;strokeWidth=3;fontColor=#F8F8F2;" parent="1" vertex="1">
                    <mxGeometry x="273" y="419" width="106" height="60" as="geometry"/>
                </mxCell>
                <mxCell id="165" value="" style="rounded=0;whiteSpace=wrap;html=1;strokeColor=#50FA7B;strokeWidth=3;fillColor=#2E303D;fontColor=#F8F8F2;" parent="1" vertex="1">
                    <mxGeometry x="-395" y="178" width="814" height="121" as="geometry"/>
                </mxCell>
                <mxCell id="166" value="Infra" style="text;html=1;resizable=0;points=[];autosize=1;align=right;verticalAlign=bottom;spacingTop=-4;fontColor=#F8F8F2;fontSize=13;" parent="1" vertex="1">
                    <mxGeometry x="383" y="153.5" width="36" height="16" as="geometry"/>
                </mxCell>
                <mxCell id="174" value="UUID" style="rounded=1;whiteSpace=wrap;html=1;strokeColor=#FF5555;fillColor=#2E303D;strokeWidth=3;fontColor=#F8F8F2;" parent="1" vertex="1">
                    <mxGeometry x="37" y="83" width="74" height="60" as="geometry"/>
                </mxCell>
                <mxCell id="181" style="edgeStyle=orthogonalEdgeStyle;rounded=0;orthogonalLoop=1;jettySize=auto;html=1;exitX=0.25;exitY=1;exitDx=0;exitDy=0;entryX=0.5;entryY=0;entryDx=0;entryDy=0;strokeColor=#8BE9FD;strokeWidth=3;dashed=1;dashPattern=1 1;" parent="1" source="175" target="155" edge="1">
                    <mxGeometry relative="1" as="geometry"/>
                </mxCell>
                <mxCell id="182" style="edgeStyle=orthogonalEdgeStyle;rounded=0;orthogonalLoop=1;jettySize=auto;html=1;exitX=0.75;exitY=1;exitDx=0;exitDy=0;entryX=0.5;entryY=0;entryDx=0;entryDy=0;strokeColor=#8BE9FD;strokeWidth=3;dashed=1;dashPattern=1 1;" parent="1" source="175" target="156" edge="1">
                    <mxGeometry relative="1" as="geometry"/>
                </mxCell>
                <mxCell id="189" style="edgeStyle=orthogonalEdgeStyle;rounded=0;orthogonalLoop=1;jettySize=auto;html=1;exitX=0.5;exitY=0;exitDx=0;exitDy=0;entryX=0.5;entryY=1;entryDx=0;entryDy=0;strokeColor=#8BE9FD;strokeWidth=3;" parent="1" source="175" target="188" edge="1">
                    <mxGeometry relative="1" as="geometry"/>
                </mxCell>
                <mxCell id="175" value="AwsS3FileStorage" style="rounded=1;whiteSpace=wrap;html=1;strokeColor=#8BE9FD;fillColor=#2E303D;strokeWidth=3;fontColor=#F8F8F2;" parent="1" vertex="1">
                    <mxGeometry x="-279" y="214" width="115" height="60" as="geometry"/>
                </mxCell>
                <mxCell id="177" style="edgeStyle=orthogonalEdgeStyle;rounded=0;orthogonalLoop=1;jettySize=auto;html=1;exitX=0.25;exitY=1;exitDx=0;exitDy=0;entryX=0.5;entryY=0;entryDx=0;entryDy=0;strokeColor=#8BE9FD;strokeWidth=3;dashed=1;dashPattern=1 1;" parent="1" source="176" target="158" edge="1">
                    <mxGeometry relative="1" as="geometry"/>
                </mxCell>
                <mxCell id="178" style="edgeStyle=orthogonalEdgeStyle;rounded=0;orthogonalLoop=1;jettySize=auto;html=1;exitX=0.75;exitY=1;exitDx=0;exitDy=0;entryX=0.5;entryY=0;entryDx=0;entryDy=0;strokeColor=#8BE9FD;strokeWidth=3;dashed=1;dashPattern=1 1;" parent="1" source="176" target="159" edge="1">
                    <mxGeometry relative="1" as="geometry"/>
                </mxCell>
                <mxCell id="180" style="edgeStyle=orthogonalEdgeStyle;rounded=0;orthogonalLoop=1;jettySize=auto;html=1;exitX=0.5;exitY=0;exitDx=0;exitDy=0;entryX=0.5;entryY=1;entryDx=0;entryDy=0;strokeColor=#8BE9FD;strokeWidth=3;" parent="1" source="176" target="179" edge="1">
                    <mxGeometry relative="1" as="geometry"/>
                </mxCell>
                <mxCell id="176" value="PgUserProfileRepo" style="rounded=1;whiteSpace=wrap;html=1;strokeColor=#8BE9FD;fillColor=#2E303D;strokeWidth=3;fontColor=#F8F8F2;" parent="1" vertex="1">
                    <mxGeometry x="198" y="214" width="123" height="60" as="geometry"/>
                </mxCell>
                <mxCell id="179" value="TypeORM" style="rounded=1;whiteSpace=wrap;html=1;strokeColor=#FF5555;fillColor=#2E303D;strokeWidth=3;fontColor=#F8F8F2;" parent="1" vertex="1">
                    <mxGeometry x="222.5" y="83" width="74" height="60" as="geometry"/>
                </mxCell>
                <mxCell id="185" style="edgeStyle=orthogonalEdgeStyle;rounded=0;orthogonalLoop=1;jettySize=auto;html=1;exitX=0.5;exitY=1;exitDx=0;exitDy=0;entryX=0.25;entryY=0;entryDx=0;entryDy=0;strokeColor=#8BE9FD;strokeWidth=3;dashed=1;dashPattern=1 1;" parent="1" source="183" target="157" edge="1">
                    <mxGeometry relative="1" as="geometry"/>
                </mxCell>
                <mxCell id="183" value="UniqueId" style="rounded=1;whiteSpace=wrap;html=1;strokeColor=#8BE9FD;fillColor=#2E303D;strokeWidth=3;fontColor=#F8F8F2;" parent="1" vertex="1">
                    <mxGeometry x="-96.5" y="214" width="89" height="60" as="geometry"/>
                </mxCell>
                <mxCell id="186" style="edgeStyle=orthogonalEdgeStyle;rounded=0;orthogonalLoop=1;jettySize=auto;html=1;exitX=0.5;exitY=1;exitDx=0;exitDy=0;entryX=0.75;entryY=0;entryDx=0;entryDy=0;strokeColor=#8BE9FD;strokeWidth=3;dashed=1;dashPattern=1 1;" parent="1" source="184" target="157" edge="1">
                    <mxGeometry relative="1" as="geometry"/>
                </mxCell>
                <mxCell id="187" style="edgeStyle=orthogonalEdgeStyle;rounded=0;orthogonalLoop=1;jettySize=auto;html=1;exitX=0.5;exitY=0;exitDx=0;exitDy=0;entryX=0.5;entryY=1;entryDx=0;entryDy=0;strokeColor=#8BE9FD;strokeWidth=3;" parent="1" source="184" target="174" edge="1">
                    <mxGeometry relative="1" as="geometry"/>
                </mxCell>
                <mxCell id="184" value="UUIDHandler" style="rounded=1;whiteSpace=wrap;html=1;strokeColor=#8BE9FD;fillColor=#2E303D;strokeWidth=3;fontColor=#F8F8F2;" parent="1" vertex="1">
                    <mxGeometry x="27" y="214" width="94" height="60" as="geometry"/>
                </mxCell>
                <mxCell id="188" value="AWS-SDK" style="rounded=1;whiteSpace=wrap;html=1;strokeColor=#FF5555;fillColor=#2E303D;strokeWidth=3;fontColor=#F8F8F2;" parent="1" vertex="1">
                    <mxGeometry x="-258.5" y="83" width="74" height="60" as="geometry"/>
                </mxCell>
                <mxCell id="190" value="" style="rounded=0;whiteSpace=wrap;html=1;strokeColor=#50FA7B;strokeWidth=3;fillColor=#2E303D;fontColor=#F8F8F2;" parent="1" vertex="1">
                    <mxGeometry x="-395" y="805" width="814" height="328" as="geometry"/>
                </mxCell>
                <mxCell id="191" value="Application" style="text;html=1;resizable=0;points=[];autosize=1;align=right;verticalAlign=bottom;spacingTop=-4;fontColor=#F8F8F2;fontSize=13;" parent="1" vertex="1">
                    <mxGeometry x="350.5" y="786" width="73" height="16" as="geometry"/>
                </mxCell>
                <mxCell id="192" style="edgeStyle=orthogonalEdgeStyle;rounded=0;orthogonalLoop=1;jettySize=auto;html=1;exitX=0.5;exitY=1;exitDx=0;exitDy=0;entryX=0.5;entryY=0;entryDx=0;entryDy=0;strokeColor=#8BE9FD;strokeWidth=3;" parent="1" source="194" target="197" edge="1">
                    <mxGeometry relative="1" as="geometry"/>
                </mxCell>
                <mxCell id="193" style="edgeStyle=orthogonalEdgeStyle;rounded=0;orthogonalLoop=1;jettySize=auto;html=1;exitX=0;exitY=0.5;exitDx=0;exitDy=0;entryX=1;entryY=0.5;entryDx=0;entryDy=0;strokeColor=#8BE9FD;strokeWidth=3;dashed=1;dashPattern=1 1;" parent="1" source="194" target="199" edge="1">
                    <mxGeometry relative="1" as="geometry"/>
                </mxCell>
                <mxCell id="204" style="edgeStyle=orthogonalEdgeStyle;rounded=0;orthogonalLoop=1;jettySize=auto;html=1;exitX=0.5;exitY=0;exitDx=0;exitDy=0;entryX=0.5;entryY=1;entryDx=0;entryDy=0;strokeColor=#8BE9FD;strokeWidth=3;" parent="1" source="194" target="126" edge="1">
                    <mxGeometry relative="1" as="geometry"/>
                </mxCell>
                <mxCell id="194" value="SavePictureController" style="rounded=1;whiteSpace=wrap;html=1;strokeColor=#8BE9FD;fillColor=#2E303D;strokeWidth=3;fontColor=#F8F8F2;" parent="1" vertex="1">
                    <mxGeometry x="-58.5" y="834.5" width="154" height="60" as="geometry"/>
                </mxCell>
                <mxCell id="195" value="ValidationComposite" style="rounded=1;whiteSpace=wrap;html=1;strokeColor=#8BE9FD;fillColor=#2E303D;strokeWidth=3;fontColor=#F8F8F2;" parent="1" vertex="1">
                    <mxGeometry x="-361" y="935.5" width="136" height="60" as="geometry"/>
                </mxCell>
                <mxCell id="196" style="edgeStyle=orthogonalEdgeStyle;rounded=0;orthogonalLoop=1;jettySize=auto;html=1;exitX=0.75;exitY=1;exitDx=0;exitDy=0;entryX=0.5;entryY=0;entryDx=0;entryDy=0;strokeColor=#8BE9FD;strokeWidth=3;" parent="1" source="197" target="200" edge="1">
                    <mxGeometry relative="1" as="geometry"/>
                </mxCell>
                <mxCell id="208" style="edgeStyle=orthogonalEdgeStyle;rounded=0;orthogonalLoop=1;jettySize=auto;html=1;exitX=0.25;exitY=1;exitDx=0;exitDy=0;entryX=0.5;entryY=0;entryDx=0;entryDy=0;strokeColor=#8BE9FD;strokeWidth=3;" parent="1" source="197" target="206" edge="1">
                    <mxGeometry relative="1" as="geometry"/>
                </mxCell>
                <mxCell id="209" style="edgeStyle=orthogonalEdgeStyle;rounded=0;orthogonalLoop=1;jettySize=auto;html=1;exitX=0;exitY=0.75;exitDx=0;exitDy=0;entryX=0.5;entryY=0;entryDx=0;entryDy=0;strokeColor=#8BE9FD;strokeWidth=3;" parent="1" source="197" target="207" edge="1">
                    <mxGeometry relative="1" as="geometry"/>
                </mxCell>
                <mxCell id="210" style="edgeStyle=orthogonalEdgeStyle;rounded=0;orthogonalLoop=1;jettySize=auto;html=1;exitX=1;exitY=0.75;exitDx=0;exitDy=0;entryX=0.5;entryY=0;entryDx=0;entryDy=0;strokeColor=#8BE9FD;strokeWidth=3;" parent="1" source="197" target="205" edge="1">
                    <mxGeometry relative="1" as="geometry"/>
                </mxCell>
                <mxCell id="197" value="ValidationBuilder" style="rounded=1;whiteSpace=wrap;html=1;strokeColor=#8BE9FD;fillColor=#2E303D;strokeWidth=3;fontColor=#F8F8F2;" parent="1" vertex="1">
                    <mxGeometry x="-42.5" y="935.5" width="122" height="60" as="geometry"/>
                </mxCell>
                <mxCell id="198" style="edgeStyle=orthogonalEdgeStyle;rounded=0;orthogonalLoop=1;jettySize=auto;html=1;exitX=0.5;exitY=1;exitDx=0;exitDy=0;entryX=0.5;entryY=0;entryDx=0;entryDy=0;strokeColor=#8BE9FD;strokeWidth=3;" parent="1" source="199" target="195" edge="1">
                    <mxGeometry relative="1" as="geometry"/>
                </mxCell>
                <mxCell id="199" value="Controller" style="rounded=1;whiteSpace=wrap;html=1;strokeColor=#BD93F9;fillColor=#2E303D;strokeWidth=3;fontColor=#F8F8F2;" parent="1" vertex="1">
                    <mxGeometry x="-215.5" y="834.5" width="103" height="60" as="geometry"/>
                </mxCell>
                <mxCell id="200" value="Required" style="rounded=1;whiteSpace=wrap;html=1;strokeColor=#8BE9FD;fillColor=#2E303D;strokeWidth=3;fontColor=#F8F8F2;" parent="1" vertex="1">
                    <mxGeometry x="39.5" y="1043.5" width="80" height="60" as="geometry"/>
                </mxCell>
                <mxCell id="205" value="RequiredBuffer" style="rounded=1;whiteSpace=wrap;html=1;strokeColor=#8BE9FD;fillColor=#2E303D;strokeWidth=3;fontColor=#F8F8F2;" parent="1" vertex="1">
                    <mxGeometry x="132.5" y="1043.5" width="105" height="60" as="geometry"/>
                </mxCell>
                <mxCell id="206" value="AllowedMimeTypes" style="rounded=1;whiteSpace=wrap;html=1;strokeColor=#8BE9FD;fillColor=#2E303D;strokeWidth=3;fontColor=#F8F8F2;" parent="1" vertex="1">
                    <mxGeometry x="-96.5" y="1043.5" width="123" height="60" as="geometry"/>
                </mxCell>
                <mxCell id="207" value="MaxFileSize" style="rounded=1;whiteSpace=wrap;html=1;strokeColor=#8BE9FD;fillColor=#2E303D;strokeWidth=3;fontColor=#F8F8F2;" parent="1" vertex="1">
                    <mxGeometry x="-199" y="1043.5" width="90" height="60" as="geometry"/>
                </mxCell>
            </root>
        </mxGraphModel>
    </diagram>
</mxfile>
